<svg version="1.1" xmlns="http://www.w3.org/2000/svg" xmlns:xlink="http://www.w3.org/1999/xlink" width="83" height="83" viewBox="0,0,83,83"><defs><linearGradient x1="197.375" y1="178.1328" x2="280.375" y2="178.1328" gradientUnits="userSpaceOnUse" id="color-1"><stop offset="0" stop-color="#8dc63f"/><stop offset="1" stop-color="#006838"/></linearGradient><radialGradient cx="238.875" cy="178.1328" r="33.9434" gradientUnits="userSpaceOnUse" id="color-2"><stop offset="0" stop-color="#d7df23"/><stop offset="1" stop-color="#009444"/></radialGradient></defs><g transform="translate(-197.375,-136.632)"><g data-paper-data="{&quot;isPaintingLayer&quot;:true}" fill-rule="nonzero" stroke="none" stroke-linecap="butt" stroke-linejoin="miter" stroke-miterlimit="10" stroke-dasharray="" stroke-dashoffset="0" style="mix-blend-mode: normal"><path d="M280.375,178.132c0,22.882 -18.616,41.5 -41.5,41.5c-22.883,0 -41.5,-18.618 -41.5,-41.5c0,-22.883 18.616,-41.5 41.5,-41.5c22.884,0 41.5,18.618 41.5,41.5z" fill="url(#color-1)" stroke-width="1"/><path d="M204.931,178.133c0,-18.74675 15.19725,-33.944 33.944,-33.944c18.74675,0 33.944,15.19725 33.944,33.944c0,18.74675 -15.19725,33.944 -33.944,33.944c-18.74675,0 -33.944,-15.19725 -33.944,-33.944z" fill="url(#color-2)" stroke-width="1"/><path d="M240.86443,160.88037c0.09689,-0.03131 0.19936,-0.05052 0.30832,-0.05562c1.86484,-0.08731 3.90452,1.7884 5.45699,2.50411c4.73805,2.1843 7.60522,4.15028 10.82864,8.08222c1.36924,1.67021 5.95174,5.24217 3.49689,7.69702c-1.39908,1.39908 -2.92536,0.71649 -3.91053,-0.375c-4.58473,-5.07951 -5.8376,-7.72942 -12.54345,-10.89407c-0.02145,-0.01012 -0.04535,-0.02121 -0.07156,-0.03322c-0.06425,7.57696 -0.52166,14.31822 -1.77244,21.81992c-0.35757,2.14453 -0.35001,6.10583 -1.86118,8.21374c-0.41154,0.81611 -1.25721,1.37586 -2.23361,1.37586c-1.38071,0 -2.5,-1.11929 -2.5,-2.5c0,-0.21859 0.02805,-0.43063 0.08076,-0.63271c0.79387,-6.1594 1.88607,-12.91273 2.99389,-18.97363c0.66441,-3.63499 1.64062,-7.81092 0.17536,-11.26866c-0.35177,-0.8301 -4.59962,0.63738 -5.09675,0.83128c-1.41301,0.55114 -2.83177,1.08745 -4.25,1.625c-1.69376,0.64198 -13.40325,7.66175 -13.40325,1.79372c0,-2.60036 2.78053,-2.35799 4.29609,-3.19313c5.05941,-2.78797 11.95331,-6.19745 17.81416,-6.19745c0.72007,0 1.39069,0.08865 2.00114,0.26081c0.06112,-0.03192 0.12454,-0.05887 0.19054,-0.08019z" fill="#0021ff" stroke-width="0.5"/></g></g></svg>