<svg version="1.1" xmlns="http://www.w3.org/2000/svg" xmlns:xlink="http://www.w3.org/1999/xlink" width="83" height="83" viewBox="0,0,83,83"><defs><linearGradient x1="197.375" y1="178.1328" x2="280.375" y2="178.1328" gradientUnits="userSpaceOnUse" id="color-1"><stop offset="0" stop-color="#8dc63f"/><stop offset="1" stop-color="#006838"/></linearGradient><radialGradient cx="238.875" cy="178.1328" r="33.9434" gradientUnits="userSpaceOnUse" id="color-2"><stop offset="0" stop-color="#d7df23"/><stop offset="1" stop-color="#009444"/></radialGradient></defs><g transform="translate(-197.375,-136.632)"><g data-paper-data="{&quot;isPaintingLayer&quot;:true}" fill-rule="nonzero" stroke="none" stroke-linecap="butt" stroke-linejoin="miter" stroke-miterlimit="10" stroke-dasharray="" stroke-dashoffset="0" style="mix-blend-mode: normal"><path d="M280.375,178.132c0,22.882 -18.616,41.5 -41.5,41.5c-22.883,0 -41.5,-18.618 -41.5,-41.5c0,-22.883 18.616,-41.5 41.5,-41.5c22.884,0 41.5,18.618 41.5,41.5z" fill="url(#color-1)" stroke-width="1"/><path d="M204.931,178.133c0,-18.74675 15.19725,-33.944 33.944,-33.944c18.74675,0 33.944,15.19725 33.944,33.944c0,18.74675 -15.19725,33.944 -33.944,33.944c-18.74675,0 -33.944,-15.19725 -33.944,-33.944z" fill="url(#color-2)" stroke-width="1"/><path d="M258.13812,179.11749c1.54853,-1.82269 5.29951,-6.54563 6.43787,-0.85381c0.19004,0.95021 -2.55114,3.97278 -2.60434,4.03685c-2.76419,3.32909 -4.70147,5.47744 -8.18608,7.74051c-0.00505,0.00328 -0.14201,0.0978 -0.36404,0.24393c-0.10555,0.12309 -0.20922,0.2394 -0.31114,0.34915c-0.65419,1.64988 -1.66194,2.75015 -3.07497,1.51277c-0.03523,-0.00604 -0.07041,-0.01287 -0.10556,-0.02046c-1.46009,-0.31542 -2.86872,-1.95406 -5.06427,-3.49716c-3.25631,-2.28865 -6.78629,-4.37709 -10.25699,-6.34581c-1.4539,-0.82471 -6.16526,-1.99158 -6.65716,-3.8251c-1.80121,-6.71393 7.32593,-1.46676 8.9791,-0.6041c1.898,0.99041 3.71285,2.26456 5.59115,3.30669c0.26175,0.14523 3.27964,2.06359 6.02109,3.88307c-0.03583,-1.50368 -0.11258,-2.94764 -0.38806,-3.90211c-0.83392,-2.88929 -1.79644,-5.92823 -2.72215,-8.78571c-1.31622,-4.06295 -3.55174,-8.81368 -4.09586,-13.16666c-0.01595,-0.11412 -0.0242,-0.2307 -0.0242,-0.34921c0,-1.27106 0.94857,-2.32057 2.17643,-2.47925c0.77859,-0.20885 1.63405,0.01362 2.33914,0.96758c1.25916,1.7036 1.87616,6.1127 2.59568,8.19037c1.96052,5.6612 4.82686,12.13247 5.50174,18.26122c1.56058,-1.38918 3.95244,-4.3565 4.21264,-4.66276z" fill="#0021ff" stroke-width="0.5"/></g></g></svg>