<svg version="1.1" xmlns="http://www.w3.org/2000/svg" xmlns:xlink="http://www.w3.org/1999/xlink" width="83" height="83" viewBox="0,0,83,83"><defs><linearGradient x1="197.375" y1="178.1328" x2="280.375" y2="178.1328" gradientUnits="userSpaceOnUse" id="color-1"><stop offset="0" stop-color="#8dc63f"/><stop offset="1" stop-color="#006838"/></linearGradient><radialGradient cx="238.875" cy="178.1328" r="33.9434" gradientUnits="userSpaceOnUse" id="color-2"><stop offset="0" stop-color="#d7df23"/><stop offset="1" stop-color="#009444"/></radialGradient></defs><g transform="translate(-197.375,-136.632)"><g data-paper-data="{&quot;isPaintingLayer&quot;:true}" fill-rule="nonzero" stroke="none" stroke-linecap="butt" stroke-linejoin="miter" stroke-miterlimit="10" stroke-dasharray="" stroke-dashoffset="0" style="mix-blend-mode: normal"><path d="M280.375,178.132c0,22.882 -18.616,41.5 -41.5,41.5c-22.883,0 -41.5,-18.618 -41.5,-41.5c0,-22.883 18.616,-41.5 41.5,-41.5c22.884,0 41.5,18.618 41.5,41.5z" fill="url(#color-1)" stroke-width="1"/><path d="M204.931,178.133c0,-18.74676 15.19724,-33.944 33.944,-33.944c18.74676,0 33.944,15.19725 33.944,33.944c0,18.74676 -15.19725,33.944 -33.944,33.944c-18.74676,0 -33.944,-15.19724 -33.944,-33.944z" fill="url(#color-2)" stroke-width="1"/><path d="M238.40179,167.87605c-1.2851,-1.2851 -4.75397,-3.17151 -3.57535,-5.52875c1.198,-2.396 3.84205,-1.20855 5.11367,0.06307c5.17536,5.17536 9.76944,9.85274 15.69205,14.2947c0.38893,0.18439 0.72269,0.4662 0.96974,0.81393c0.89277,0.76523 0.82531,1.62415 0.30149,2.32591c-0.11322,0.30118 -0.2829,0.57472 -0.49614,0.80772c-0.95077,2.10573 -6.2746,4.63827 -7.41334,5.3192c-1.41552,0.84644 -4.2547,1.43506 -5.51658,1.77848c-4.15424,1.13057 -7.95723,1.70798 -12.04953,2.54147c-0.87979,0.17919 -3.97109,1.13025 -4.86529,0.23605c-1.66667,-1.66667 -1.66667,-2.70833 0,-4.375c0.56086,-0.56086 4.68896,-0.93158 5.10888,-0.99899c4.66954,-0.74959 9.98316,-1.44476 14.42176,-3.36835c0.39546,-0.17138 -0.84857,-0.16068 -1.27819,-0.19516c-0.5316,-0.04267 -1.2699,0.04453 -1.856,-0.02513c-2.38992,-0.28402 -4.73749,-0.44471 -7.14645,-0.47487c-6.43264,-0.08053 -19.95805,2.69841 -21.76883,-0.47046c-0.73685,-0.43488 -1.23117,-1.23698 -1.23117,-2.15454c0,-1.25852 0.92994,-2.29984 2.14016,-2.4743c5.46678,-4.13969 15.46347,-0.09462 22.68277,0.11753c2.83685,0.08336 5.73924,0.21249 8.60676,0.40366c-2.88189,-2.81989 -5.4442,-6.23996 -7.84041,-8.63618z" fill="#0021ff" stroke-width="0.5"/></g></g></svg>