<svg version="1.1" xmlns="http://www.w3.org/2000/svg" xmlns:xlink="http://www.w3.org/1999/xlink" width="83" height="83" viewBox="0,0,83,83"><defs><linearGradient x1="197.375" y1="178.1328" x2="280.375" y2="178.1328" gradientUnits="userSpaceOnUse" id="color-1"><stop offset="0" stop-color="#8dc63f"/><stop offset="1" stop-color="#006838"/></linearGradient><radialGradient cx="238.875" cy="178.1328" r="33.9434" gradientUnits="userSpaceOnUse" id="color-2"><stop offset="0" stop-color="#d7df23"/><stop offset="1" stop-color="#009444"/></radialGradient></defs><g transform="translate(-197.375,-136.632)"><g data-paper-data="{&quot;isPaintingLayer&quot;:true}" fill-rule="nonzero" stroke="none" stroke-linecap="butt" stroke-linejoin="miter" stroke-miterlimit="10" stroke-dasharray="" stroke-dashoffset="0" style="mix-blend-mode: normal"><path d="M280.375,178.132c0,22.882 -18.616,41.5 -41.5,41.5c-22.883,0 -41.5,-18.618 -41.5,-41.5c0,-22.883 18.616,-41.5 41.5,-41.5c22.884,0 41.5,18.618 41.5,41.5z" fill="url(#color-1)" stroke-width="1"/><path d="M204.931,178.133c0,-18.74675 15.19725,-33.944 33.944,-33.944c18.74675,0 33.944,15.19725 33.944,33.944c0,18.74675 -15.19725,33.944 -33.944,33.944c-18.74675,0 -33.944,-15.19725 -33.944,-33.944z" fill="url(#color-2)" stroke-width="1"/><path d="M225.57129,165.97379c6.05516,-3.02969 12.14067,-4.90224 18.62718,-6.89734c2.08343,-0.64082 7.62078,-3.06797 9.1001,-0.47915c2.20944,3.86652 -8.70973,5.55133 -10.6258,6.21651c-2.63347,0.91422 -5.39426,1.44778 -8.02111,2.3868c-0.58013,0.20738 -1.17118,0.43248 -1.76691,0.67369c3.87465,0.54135 7.69352,1.35502 10.31433,1.50017c4.81297,0.26657 9.63565,1.13009 14.25157,2.46586c0.71347,0.20647 2.67888,0.14212 2.87205,1.10798l0.61481,1.64202c-1.3104,1.62021 -2.3716,2.21923 -3.49173,2.29557c-1.75878,0.11986 -3.66285,-1.0489 -6.905,-1.57654c-8.16703,-1.32911 -16.65587,-1.7734 -24.92409,-1.71904c-0.79236,0.00521 0.94232,1.27814 1.33955,1.96376c0.4716,0.814 1.04379,1.58976 1.51983,2.40865c1.15854,1.99295 8.51035,12.46072 5.20447,14.11366c-3.3489,1.67445 -8.56866,-10.22138 -9.84153,-12.12444c-0.75761,-1.13271 -1.49716,-2.28303 -2.26066,-3.39444c-0.80698,-1.17471 -3.56617,-4.50915 -2.73638,-5.96129c0.58335,-1.02086 1.45613,-1.7485 2.53669,-2.25019c1.29595,-0.97331 2.87948,-1.71522 4.19262,-2.37225z" fill="#0021ff" stroke-width="0.5"/></g></g></svg>