<svg version="1.1" xmlns="http://www.w3.org/2000/svg" xmlns:xlink="http://www.w3.org/1999/xlink" width="420.13388" height="366.85162" viewBox="0,0,420.13388,366.85162"><g transform="translate(-61.51482,52.83335)"><g data-paper-data="{&quot;isPaintingLayer&quot;:true}" fill-rule="nonzero" stroke="none" stroke-linecap="butt" stroke-linejoin="miter" stroke-miterlimit="10" stroke-dasharray="" stroke-dashoffset="0" style="mix-blend-mode: normal"><path d="M319,275.66666c0,-2.5 2.5,-2.5 2.5,-2.5c10,0 23,0 33,0c4.91207,0 10.75555,0.86943 15.59954,0.03228c1.0387,-0.17951 1.95602,-0.85438 3,-1c0.28402,-0.03962 6.42161,-0.03228 7.40046,-0.03228c4.94951,0.06146 10.22069,-2.36067 12.87337,-6.81433c1.07881,-1.81124 0.92509,-4.18644 2,-6c0.41626,-0.70231 1.48729,-0.89548 1.81693,-1.64238c0.73297,-1.66079 -0.44707,-3.65156 -0.15802,-5.44375c0.31775,-1.97015 0.70422,-3.92945 0.98645,-5.905c1.0583,-7.40791 1.94611,-15.82962 1,-23.38908c-0.34136,-2.72746 -1.34462,-5.33054 -2,-8c-0.02741,-6.3002 -1.25561,-11.80863 -2,-18c-0.14253,-1.18549 0.42158,-2.43435 0.08854,-3.581c-0.33523,-1.15415 -1.62814,-1.85712 -2,-3c-0.35273,-1.08411 0.07696,-2.29103 -0.08854,-3.419c-0.33752,-2.30041 -0.60341,-4.61174 -0.98645,-6.905c-0.17143,-1.02636 -0.83383,-1.93125 -0.9931,-2.95957c-0.21874,-1.41232 0.18116,-2.89044 -0.12903,-4.28552c-0.36467,-1.64006 -1.46962,-3.04967 -1.86504,-4.6826c-0.24103,-0.99535 0.15566,-2.06215 -0.01283,-3.07231c-0.17342,-1.03973 -0.82671,-1.96025 -1,-3c-1.22525,-7.35153 -1.59566,-13.87158 -4.9654,-20.82607c-0.05792,-5.13556 -1.08133,-10.8532 -2.91159,-15.70702c-0.93535,-2.48053 -2.44131,-4.75745 -3.09216,-7.32734c-0.68653,-2.71078 -1.56709,-5.38193 -2.03085,-8.13957c-0.15979,-0.95016 0.23007,-1.95006 0.02029,-2.89045c-0.2289,-1.02612 -0.93379,-1.88772 -1.30556,-2.87113c-1.0781,-2.85182 -1.5255,-5.91523 -2.59172,-8.77151c-0.55652,-1.49085 -1.65321,-2.76231 -2.08841,-4.29298c-0.28936,-1.0177 0.13488,-2.12955 -0.0346,-3.17393c-0.62632,-3.85955 -2.65521,-7.74876 -4.61241,-11.01371c-0.41884,-0.6987 -0.41531,-1.74044 -1.09952,-2.18256c-0.51633,-0.33364 -1.20676,0.25816 -1.82036,0.29581c-0.99812,0.06125 -2,0 -3,0c-6.33333,0 -12.66667,0 -19,0c-2.34862,0 -4.83268,-0.98354 -7.04329,-0.1903c-0.88741,0.31843 -1.11512,1.67463 -2,2c-3.75107,1.37928 -8.66928,-0.51373 -12.55625,0.15802c-1.99797,0.34529 -3.99824,0.67743 -6,1c-3.07108,0.49488 -5.91717,2.48111 -9,3c-0.87997,0.14811 -1.83093,-0.36159 -2.676,-0.07499c-1.13817,0.38601 -1.85949,1.62094 -3,2c-0.87589,0.29111 -1.84517,-0.05535 -2.76775,-0.08303c-0.54746,0.60564 -0.94366,1.39466 -1.64238,1.81693c-1.50899,0.91195 -6.29427,1.62566 -7.00463,3.83008c-0.25036,0.77694 0.2876,1.63781 0.15802,2.44375c-0.08049,0.50063 -1.86436,5.58745 -2.06742,6.29851c-1.50249,5.26144 -2.09703,11.06312 -4.05559,16.1684c-0.61433,1.60134 -1.36921,3.16467 -2.31661,4.59441c-0.41937,0.63288 -1.49311,0.76991 -1.71841,1.49493c-0.37279,1.19964 0.44409,2.56453 0.08303,3.76775c-1.07605,3.58594 -4.70918,6.52561 -6.04802,10.14291c-1.97349,5.33202 -3.20411,10.78302 -6.26372,15.63203c-3.19436,8.02808 -6.26294,15.86746 -8.68069,24.19958c-0.65929,2.27207 -0.27559,4.77579 -1.00757,7.02549c-0.37186,1.14288 -1.66944,1.8445 -2,3c-0.35299,1.23388 0.35521,2.60576 0.04039,3.84992c-0.80723,3.19021 -2.97583,6.95944 -4.06141,10.21619c-0.93692,2.81077 -1.8104,8.3693 -3.32817,10.64955c-0.78747,1.18307 -2.35853,1.5934 -3.45857,2.49323c-3.19474,2.6133 -5.02836,3.5293 -9.27951,3.54791c-5.27201,1.318 -10.69085,1.26118 -16,2c-3.4524,0.48044 -6.51018,2.42238 -9.905,2.98645c-1.97295,0.32782 -4.02921,-0.34059 -6,0c-5.02535,0.86849 -9.9667,2.18822 -15,3c-3.89861,0.62878 -8.12603,-0.6695 -12,0c-2.45432,0.42416 -4.90982,1.01401 -7.40046,1.03228c-2.19987,0 -4.4318,-0.40691 -6.59954,-0.03228c-1.0387,0.17951 -1.95936,0.83216 -3,1c-2.43537,0.39278 -4.93361,0.03228 -7.40046,0.03228c-6.33333,0 -12.66667,0 -19,0c-3.96142,0 -8.38783,0.53476 -12.30546,-0.01873c-3.78739,-0.53509 -7.37993,-2.36609 -11.095,-3.01355c-1.16897,-0.20373 -2.45192,0.27608 -3.55625,-0.15802c-0.96772,-0.3804 -1.34562,-1.66797 -2.27504,-2.1342c-1.11115,-0.55739 -2.47079,-0.39662 -3.63562,-0.83079c-1.48205,-0.5524 -2.83378,-1.40576 -4.25067,-2.10864c-2.33553,-1.17204 -4.94976,-1.77473 -7.19629,-3.10944c-0.81055,-0.48156 -1.19155,-1.51493 -2,-2c-0.90388,-0.54233 -2.10249,-0.44721 -3,-1c-0.32155,-0.19805 -4.61685,-4.48814 -4.8123,-4.8123c-2.82618,-4.68726 -2.48995,-10.80702 -3.34109,-15.91387c-0.17329,-1.03975 -0.83216,-1.95936 -1,-3c-0.47146,-2.92317 0.50147,-6.09831 0,-9c-0.52382,-3.03099 -1.51055,-5.96524 -2,-9c-0.57773,-3.58212 -0.03228,-7.77775 -0.03228,-11.40046c0,-15.29366 0.36689,-30.63871 0.00105,-45.92757c-0.06322,-2.64211 -0.72432,-5.23701 -0.99253,-7.86623c-0.2419,-2.37137 0.31295,-5.53471 0.02376,-7.80575c-0.13315,-1.04565 -0.83216,-1.95936 -1,-3c-0.47242,-2.92917 -0.03228,-6.42653 -0.03228,-9.40046c0,-5 0,-10 0,-15c0,-2.68095 0.4882,-5.96145 0.03228,-8.59954c-0.36802,-2.12949 -1.02285,-4.23942 -1.03228,-6.40046c-0.02908,-6.66635 0,-13.33359 0,-20c0,-2.56485 0.34319,-5.15029 0.01873,-7.69454c-0.49843,-3.90836 -1.01873,-7.30074 -1.01873,-11.30546c0.02352,-1.89404 -0.66612,-3.72953 -0.96772,-5.59954c-0.20318,-1.25975 0.13494,-5.93064 -0.01355,-7.095c-0.17386,-1.36333 -0.83268,-2.63585 -1,-4c-0.57077,-4.65336 0.49981,-9.49311 -0.02539,-14.15032c-0.18699,-1.65812 -0.77941,-3.25241 -0.98117,-4.9088c-1.11183,-9.12792 -0.01217,-19.03068 -0.01217,-28.24634c0,0 0,-2.5 2.5,-2.5c2.5,0 2.5,2.5 2.5,2.5c0,5.66667 0,11.33333 0,17c0,3.46986 -0.44797,7.30859 -0.01217,10.75366c0.20892,1.65154 0.79873,3.2422 0.97999,4.89701c0.50602,4.61964 -0.57324,9.44342 0.01345,14.04388c0.17386,1.36333 0.83268,2.63585 1,4c0.28022,2.28455 -0.40552,4.63695 -0.01355,6.905c0.36802,2.12949 1.01177,4.2395 1.03228,6.40046c0,3.83287 0.52167,6.94752 0.98127,10.69454c0.96161,7.83978 0.01873,16.39135 0.01873,24.30546c0,2.19987 -0.40691,4.4318 -0.03228,6.59954c0.17951,1.0387 0.83216,1.95936 1,3c0.47242,2.92917 0.03228,6.42653 0.03228,9.40046c0,5 0,10 0,15c0,9.43575 1.75015,18.48398 1.99895,27.92757c0.40396,15.33296 0.00105,30.73368 0.00105,46.07243c0,3.32147 -0.59839,7.32386 -0.03228,10.59954c0.52382,3.03099 1.51055,5.96524 2,9c0.47146,2.92317 -0.50147,6.09831 0,9c0.17951,1.0387 0.82671,1.96025 1,3c0.72847,4.37079 0.27138,10.07764 2.65891,14.08613c1.54846,2.59975 3.89457,2.81182 6.1877,4.1877c0.80845,0.48507 1.19397,1.51091 2,2c2.10661,1.27826 4.59827,1.79157 6.80371,2.89056c2.58081,1.30189 5.52665,1.77114 8.11371,3.06057c0.75806,0.37783 0.94118,1.54471 1.72496,1.8658c0.75536,0.30944 1.63751,-0.2857 2.44375,-0.15802c3.65767,0.57926 7.19752,2.44986 10.905,2.98645c3.70376,0.53605 7.94569,-0.01873 11.69454,-0.01873c5.33333,0 10.66667,0 16,0c3.05827,0 6.59832,0.55096 9.59954,0.03228c1.0387,-0.17951 1.95936,-0.83216 3,-1c2.43537,-0.39278 4.93361,-0.03228 7.40046,-0.03228c2.22328,0.01994 4.40454,-0.6137 6.59954,-0.96772c3.89861,-0.62878 8.12603,0.6695 12,0c5.02535,-0.86849 9.9667,-2.18822 15,-3c1.97448,-0.31845 4.02743,0.33008 6,0c3.44153,-0.57588 6.56625,-2.49747 10.095,-3.01355c5.30376,-0.77568 10.7241,-0.68103 16,-2c3.79818,0.01772 3.92367,-0.28218 6.72049,-2.45209c0.77811,-0.6037 1.99424,-0.68793 2.54143,-1.50677c0.6152,-0.9206 0.36135,-2.18809 0.64324,-3.25885c0.80539,-3.05928 2.02501,-6.09054 3.02859,-9.0916c0.78154,-2.33709 2.34814,-4.39128 2.93859,-6.78381c0.33146,-1.34313 -0.33924,-2.81976 0.04039,-4.15008c0.3298,-1.15571 1.61058,-1.86299 2,-3c0.27893,-0.8144 -0.20981,-1.72874 -0.08854,-2.581c0.21246,-1.49314 0.67185,-2.94188 1.08097,-4.39351c2.43756,-8.64891 5.69495,-16.781 9.03321,-25.08519c2.99522,-4.63478 4.08039,-9.96502 6.02237,-15.08321c1.11951,-2.95052 2.52241,-4.99148 4.26459,-7.51938c0.54535,-0.79131 1.43734,-1.40978 1.6874,-2.33771c0.36714,-1.36242 -0.38426,-2.90085 0.08303,-4.23225c0.37404,-1.06572 1.65239,-1.56711 2.28159,-2.50507c0.70544,-1.05161 1.24995,-2.21577 1.68339,-3.40559c1.83839,-5.04641 2.46688,-10.6628 3.94441,-15.8316c0.55154,-1.92942 1.59198,-3.7239 1.93258,-5.70149c0.2014,-1.16937 -0.32102,-2.47066 0.15802,-3.55625c1.99049,-4.51087 8.07454,-5.31726 11.35299,-8.35299c1.07742,-0.02768 2.21006,0.25862 3.23225,-0.08303c1.13987,-0.38098 1.85805,-1.62531 3,-2c1.05305,-0.34552 2.2305,0.10542 3.324,-0.07499c5.07225,-0.83682 9.9176,-3.1803 15,-4c2.84907,-0.45951 6.50551,-0.14152 9.40046,-0.03228c0.68356,0.02579 1.41893,0.46975 2.04329,0.1903c0.86055,-0.38516 1.10071,-1.71686 2,-2c0.76689,-0.24145 7.75629,-0.1903 8.95671,-0.1903c6.33333,0 12.66667,0 19,0c1.14157,0 6.54894,-0.0706 7.17964,0.29581c1.38184,0.80279 1.97274,2.51618 2.90048,3.81744c2.53932,3.56167 4.6419,8.61916 5.38759,12.98629c0.15857,0.92865 -0.29474,1.92061 -0.0346,2.82607c0.38391,1.33623 1.42141,2.406 1.91159,3.70702c1.06788,2.83434 1.51428,5.87664 2.57056,8.71533c0.45931,1.23438 1.23702,2.35846 1.53216,3.64203c0.23228,1.01018 -0.14855,2.08686 0.02029,3.10955c0.55048,3.33436 1.49855,7.31321 2.84378,10.4481c2.76806,6.45061 5.21361,13.2501 5.12163,20.37797c2.68935,5.18454 3.08777,9.53985 4.03333,15.16619c0.51035,3.03669 1.49552,5.97085 2.00127,9.00773c0.16032,0.96265 -0.24401,1.97956 -0.01283,2.92769c0.39164,1.60616 1.49043,2.98827 1.84887,4.60217c0.32034,1.44235 -0.07041,2.96983 0.15706,4.42971c0.16437,1.05488 0.83174,1.98729 1.0069,3.04043c0.39196,2.35664 0.6858,4.72858 1.01355,7.095c0.1181,0.8527 -0.36747,1.7666 -0.08854,2.581c0.38942,1.13701 1.67432,1.84312 2,3c0.39923,1.41817 -0.10038,2.95787 0.08854,4.419c0.79724,6.166 2.03191,11.7067 2,18c2.74609,10.75972 2.55723,21.71007 1,32.61092c-0.29126,2.03887 -0.66281,4.06552 -1.01355,6.095c-0.41254,2.38707 0.77667,4.06952 -0.15802,6.55625c-0.37683,1.00256 -1.62679,1.44237 -2.18307,2.35762c-1.09496,1.80153 -0.91144,4.1946 -2,6c-3.60032,5.97119 -10.44808,9.12227 -17.12663,9.18567c-2.19987,0 -4.42295,-0.35145 -6.59954,-0.03228c-1.04294,0.15293 -1.95936,0.83216 -3,1c-5.16455,0.83295 -11.17801,0.03228 -16.40046,0.03228c-10,0 -20,0 -30,0h-3c0,0 -2.5,0 -2.5,-2.5z" fill="#9966ff" stroke-width="0.5"/><text transform="translate(338.5,31.16666) scale(0.80336,0.80336)" font-size="40" xml:space="preserve" fill="#ff6666" fill-rule="nonzero" stroke="none" stroke-width="1" stroke-linecap="butt" stroke-linejoin="miter" stroke-miterlimit="10" stroke-dasharray="" stroke-dashoffset="0" font-family="Sans Serif" font-weight="normal" text-anchor="start" style="mix-blend-mode: normal"><tspan x="0" dy="0">鬼抓人4.0</tspan></text><text transform="translate(68.01856,307.76827) scale(0.5,0.5)" font-size="40" xml:space="preserve" fill="#ff6666" fill-rule="nonzero" stroke="none" stroke-width="1" stroke-linecap="butt" stroke-linejoin="miter" stroke-miterlimit="10" stroke-dasharray="" stroke-dashoffset="0" font-family="Sans Serif" font-weight="normal" text-anchor="start" style="mix-blend-mode: normal"><tspan x="0" dy="0">玩家复活点</tspan></text><text transform="translate(122.87198,76.90691) scale(0.5,0.5)" font-size="40" xml:space="preserve" fill="#ff6666" fill-rule="nonzero" stroke="none" stroke-width="1" stroke-linecap="butt" stroke-linejoin="miter" stroke-miterlimit="10" stroke-dasharray="" stroke-dashoffset="0" font-family="Sans Serif" font-weight="normal" text-anchor="start" style="mix-blend-mode: normal"><tspan x="0" dy="0">鬼复活点</tspan></text></g></g></svg>