<svg version="1.1" xmlns="http://www.w3.org/2000/svg" xmlns:xlink="http://www.w3.org/1999/xlink" width="36.70662" height="51.78936" viewBox="0,0,36.70662,51.78936"><g transform="translate(-222.1106,-154.07793)"><g data-paper-data="{&quot;isPaintingLayer&quot;:true}" fill-rule="nonzero" stroke="none" stroke-width="1" stroke-linecap="butt" stroke-linejoin="miter" stroke-miterlimit="10" stroke-dasharray="" stroke-dashoffset="0" style="mix-blend-mode: normal"><path d="M258.43665,190.70055c-0.33897,2.36862 -2.16987,11.01303 -9.21181,14.03761c-0.19097,0.08349 -4.33258,1.16404 -7.46923,1.12826c-3.78355,-0.04294 -6.75071,-1.27376 -7.63871,-1.54092c-5.78394,-1.73174 -10.56529,-6.86495 -11.77555,-12.94275c-0.49413,-2.48789 -0.10265,-5.56972 0.3151,-8.05761c0.58961,-3.51596 0.78297,-7.36349 2.04574,-10.70294c1.66858,-4.42716 3.39684,-9.10239 6.50006,-13.43651c0.55858,-0.77761 4.24903,-3.88569 4.94368,-4.21725c1.12997,-0.51026 2.34311,-0.8117 3.58065,-0.88972c2.05529,-0.03578 4.31348,1.16165 6.05845,2.14679c6.99419,3.94771 10.57484,12.93083 12.17419,20.42073c0.95158,4.6243 1.113,9.37618 0.47742,14.05431z" fill="#f0e6d2"/><path d="M224.738,185.09743c0.04535,-0.98037 0.40103,-4.5655 2.56135,-5.95138c0.74631,-0.32315 1.53758,-0.53068 2.34652,-0.61541c0.84917,-0.01249 1.69181,0.14991 2.47542,0.47706c1.88819,0.59872 3.54484,2.60477 4.0891,5.07358c0.222,1.00899 0.17903,2.28275 0.11219,3.31321c-0.06484,1.45605 -0.24121,2.905 -0.52755,4.33413c-0.41297,1.85339 -0.68032,3.90477 -1.55639,5.74624c-0.42466,0.65776 -0.91406,1.27145 -1.4609,1.83193c-0.33385,0.22818 -0.71489,0.3782 -1.11477,0.4389c-0.65168,0.05963 -1.40123,-0.38642 -1.98368,-0.75376c-2.33219,-1.47651 -3.69761,-5.09266 -4.41374,-8.13394c-0.42745,-1.88883 -0.60481,-3.82557 -0.52755,-5.76055z" fill="#faf0e6"/><text transform="translate(230.15141,186.43094) scale(0.5,0.5)" font-size="40" xml:space="preserve" fill="#000000" fill-rule="nonzero" stroke="none" stroke-width="1" stroke-linecap="butt" stroke-linejoin="miter" stroke-miterlimit="10" stroke-dasharray="" stroke-dashoffset="0" font-family="&quot;Minecraft&quot;, Pixel" font-weight="normal" text-anchor="start" style="mix-blend-mode: normal"><tspan x="0" dy="0">你</tspan></text></g></g></svg>